<svg xmlns="http://www.w3.org/2000/svg" viewBox="0 0 119.09 119.11"><defs><style>.cls-1{fill:#00a79d;}.cls-2,.cls-5{fill:#231f20;}.cls-3{fill:#ec65a5;}.cls-4{fill:#fff;}.cls-5{stroke:#231f20;stroke-miterlimit:10;stroke-width:3px;}.cls-6{fill:#ef4136;}.cls-7{fill:#00aeef;}.cls-8{fill:#6e64ad;}.cls-9{fill:#21140a;}</style></defs><g id="Layer_2" data-name="Layer 2"><g id="Layer_11" data-name="Layer 11"><path class="cls-1" d="M58.94,77c-4.46,0-19.84-1-30.43-13.12-2.46-2.84-14.46-17.7-8-31.43C24,25.07,32.06,19.51,39.74,19.22h.67a27.46,27.46,0,0,1,12.67,3.43l1.26.8c.59.36,1.18.73,1.74,1.12s1,.7,1.31.94c.88.66,1.29,1,2,1,1,0,1.63-.59,2.46-1.41a19.65,19.65,0,0,1,1.48-1.35,27.2,27.2,0,0,1,3.9-2.36,21.12,21.12,0,0,1,9.17-1.84,24.69,24.69,0,0,1,11.36,2.68c5.41,2.77,9.11,6.62,11,11.44a22,22,0,0,1,.59,13.22C96.16,60.82,80.23,76.32,60,77Z"/><path class="cls-2" d="M40.41,19.71A26.84,26.84,0,0,1,52.8,23.06l1.28.81c.6.37,1.17.72,1.72,1.1s1,.69,1.29.94A3.68,3.68,0,0,0,59.4,27a3.94,3.94,0,0,0,2.79-1.55c.4-.39.85-.84,1.45-1.33a26.7,26.7,0,0,1,3.81-2.3A21.06,21.06,0,0,1,76.39,20a24.11,24.11,0,0,1,11.13,2.63c5.3,2.71,8.91,6.47,10.75,11.18a21.57,21.57,0,0,1,.56,12.93C97.24,53.76,92.4,61,85.55,66.6A43.2,43.2,0,0,1,60,76.48l-1,0c-4.41,0-19.6-.94-30-13C26.46,60.75,14.64,46.11,21,32.66c3.39-7.22,11.3-12.66,18.8-12.94h.65m0-1h-.69c-8,.3-16.16,6-19.67,13.52C13.3,46.61,26.2,62,28.14,64.21,38.91,76.6,54.33,77.5,58.94,77.5l1.05,0C80,76.82,96.56,61.35,99.8,47a22.56,22.56,0,0,0-.6-13.52C96.3,26,89.8,22.67,88,21.74A25.33,25.33,0,0,0,76.39,19,21.86,21.86,0,0,0,67,20.89a27.39,27.39,0,0,0-4,2.42C61.13,24.84,60.61,26,59.4,26h0c-.76,0-1-.44-3-1.81-1-.68-2-1.27-3-1.93a27.91,27.91,0,0,0-12.94-3.51Z"/><path class="cls-3" d="M104.15,71.87a72,72,0,0,1-4.89,15.74,68.48,68.48,0,0,1-7.42,12.67c-2.29,3-14.82,19.21-33.3,18.82-18.3-.38-29.7-16.8-33.48-22.26-5.8-8.35-7.73-16.07-9.77-24.25-2.86-11.44-2.73-21.05-2.35-39.81C13.51,4.12,16.48.93,18.73.2c3.29-1.06,7.82,2.28,10.13,4,5.9,4.35,7.07,9.5,11.58,9.78,1.41.08,1.53-.4,4.53-1.27C49,11.52,52,11.49,58,11.42c6.26-.06,9.67-.1,14.11,1.27,3.45,1.06,3.15,1.62,4.71,1.63,5,0,6.61-5.59,14.3-10.5C95.06,1.31,97.64-.34,100,.38c2.17.67,5,3.64,6.16,29.68C107.21,54.46,105.35,66,104.15,71.87Z"/><path class="cls-4" d="M57.7,42.85c.33,9.28-7,19.17-16.41,18.94-9.16-.21-15.87-9.94-15.57-18.88.29-8.28,6.64-17.39,15.69-17.55S57.39,34.35,57.7,42.85Z"/><path class="cls-2" d="M52.87,44.54c-.48,4.33-4.42,8.56-8.81,8.09-4.62-.51-7.43-6-6.75-10.5.57-3.76,3.73-7.71,7.72-7.72C49.67,34.39,53.41,39.7,52.87,44.54Z"/><path class="cls-4" d="M44.91,38.75C44.73,41,43,43.83,40.44,43.82c-2.29,0-4.1-2.27-4.34-4.35-.38-3.35,3.3-6.71,5.91-6C43.92,33.94,45.08,36.56,44.91,38.75Z"/><path class="cls-4" d="M47.11,42.94A2,2,0,0,1,45,45.3a1.72,1.72,0,0,1-1.24-1.72,1.82,1.82,0,0,1,2-1.69A1.6,1.6,0,0,1,47.11,42.94Z"/><path class="cls-4" d="M93,42.34c.34,9.27-7,19.16-16.41,18.94-9.15-.22-15.87-9.94-15.56-18.88.28-8.28,6.63-17.4,15.68-17.56S92.73,33.83,93,42.34Z"/><path class="cls-2" d="M83.73,44c-.48,4.33-4.42,8.57-8.81,8.09-4.62-.51-7.43-6-6.75-10.5.57-3.76,3.73-7.7,7.72-7.72C80.53,33.87,84.27,39.18,83.73,44Z"/><path class="cls-4" d="M75.77,38.23c-.18,2.3-1.91,5.08-4.47,5.07C69,43.29,67.2,41,67,39c-.38-3.36,3.3-6.72,5.91-6C74.78,33.43,75.94,36.05,75.77,38.23Z"/><path class="cls-4" d="M78,42.43a2,2,0,0,1-2.08,2.35,1.72,1.72,0,0,1-1.24-1.72,1.82,1.82,0,0,1,2-1.69A1.63,1.63,0,0,1,78,42.43Z"/><line class="cls-5" x1="24.25" y1="31.87" x2="27.87" y2="34.23"/><line class="cls-5" x1="26.69" y1="28.25" x2="29.86" y2="30.79"/><line class="cls-5" x1="31.03" y1="25.09" x2="32.57" y2="27.98"/><line class="cls-5" x1="94.83" y1="32.37" x2="91.21" y2="34.72"/><line class="cls-5" x1="92.39" y1="28.75" x2="89.22" y2="31.28"/><line class="cls-5" x1="88.04" y1="25.58" x2="86.51" y2="28.48"/><polygon class="cls-6" points="54.03 60.99 64.61 60.75 59.71 68.52 54.03 60.99"/><path class="cls-7" d="M49.8,76.51c.36.16.29,2.18-.95,3.49a4.52,4.52,0,0,1-3.34,1.26,5,5,0,0,1-3.71-1.49c-1.14-1.27-1.34-3.13-1-3.3s.56.63,1.72,1.36a5.52,5.52,0,0,0,2.85.9A5.1,5.1,0,0,0,48,78.05C49.23,77.33,49.55,76.4,49.8,76.51Z"/><path class="cls-7" d="M62.78,76.42c.36.16.29,2.18-1,3.49a4.52,4.52,0,0,1-3.34,1.26,5,5,0,0,1-3.71-1.49c-1.14-1.28-1.34-3.13-1-3.3s.56.63,1.72,1.36a5.52,5.52,0,0,0,2.85.9A5.1,5.1,0,0,0,61,78C62.21,77.24,62.53,76.31,62.78,76.42Z"/><path class="cls-7" d="M75.72,76.6c.36.16.29,2.18-1,3.49a4.58,4.58,0,0,1-3.34,1.27,5,5,0,0,1-3.71-1.5c-1.14-1.27-1.34-3.13-1-3.3s.56.63,1.72,1.36a5.52,5.52,0,0,0,2.85.9,5.1,5.1,0,0,0,2.62-.68C75.15,77.42,75.47,76.49,75.72,76.6Z"/><path class="cls-7" d="M56.22,88.78c.36.15.29,2.17-.95,3.48a4.58,4.58,0,0,1-3.34,1.27A5,5,0,0,1,48.22,92c-1.14-1.27-1.34-3.13-1-3.3s.56.63,1.72,1.36a5.52,5.52,0,0,0,2.85.9,5,5,0,0,0,2.62-.68C55.65,89.59,56,88.66,56.22,88.78Z"/><path class="cls-7" d="M69.66,89c.36.15.28,2.17-1,3.48a4.6,4.6,0,0,1-3.35,1.27,5,5,0,0,1-3.71-1.5c-1.13-1.27-1.33-3.13-1-3.3s.56.63,1.72,1.36a5.49,5.49,0,0,0,2.85.9,5,5,0,0,0,2.62-.68C69.09,89.77,69.4,88.84,69.66,89Z"/><path class="cls-8" d="M117.09,103.72c-1.72,1.07-5.17.73-6.51-.9-1.14-1.38-.67-3.58-1.72-3.9-.55-.16-.78.39-2.08.82-.51.17-2.45.81-3.8-.09a3.93,3.93,0,0,1-1.36-2.08c-.68-1.71-.34-2.75-.91-3s-.93.56-2.17,1-3,.42-3.44-.27c-.6-.93,1.27-2.8,2.81-5.16,1.11-1.71,2-4.72,3.71-10.68a117.29,117.29,0,0,0,3.26-12.58c1.12-7,.44-10.48,1.35-10.68,1.83-.39,6.13,13.34,7.06,16.38C116.91,84.39,121.93,100.73,117.09,103.72Z"/><path class="cls-8" d="M2,103.49c1.72,1.07,5.17.73,6.51-.91,1.13-1.38.66-3.57,1.72-3.89.55-.16.78.39,2.08.82.51.17,2.45.81,3.8-.09a4,4,0,0,0,1.36-2.08c.68-1.71.34-2.75.91-3s.93.56,2.17,1,3,.42,3.44-.28c.6-.92-1.27-2.79-2.81-5.15-1.11-1.71-2-4.72-3.71-10.68a117.91,117.91,0,0,1-3.26-12.58c-1.12-7-.44-10.48-1.35-10.68C11,55.59,6.73,69.32,5.8,72.36,2.18,84.15-2.84,100.5,2,103.49Z"/><path class="cls-9" d="M36.72,18.09c-12.43,0-22.5,10.83-22.5,24.19s10.07,24.2,22.5,24.2,22.49-10.83,22.49-24.2S49.14,18.09,36.72,18.09Zm.72,44.15c-10.69.31-19.61-8.54-19.94-19.75s8.08-20.55,18.77-20.86,19.61,8.53,19.94,19.75S48.13,61.93,37.44,62.24Z"/><path class="cls-9" d="M81.41,17.19c-12.54,0-22.7,10.93-22.7,24.42S68.87,66,81.41,66s22.7-10.93,22.7-24.42S94,17.19,81.41,17.19Zm.73,44.56c-10.79.31-19.8-8.61-20.12-19.93s8.15-20.74,18.94-21,19.79,8.61,20.12,19.93S92.92,61.44,82.14,61.75Z"/><rect class="cls-9" x="11.13" y="37.41" width="3.36" height="2.35" transform="translate(9.61 -1.94) rotate(13.86)"/><rect class="cls-9" x="102.69" y="32.76" width="4.16" height="2.35" transform="translate(-5.09 26.29) rotate(-13.96)"/></g></g></svg>